<svg id="Layer_1" data-name="Layer 1" xmlns="http://www.w3.org/2000/svg" viewBox="0 0 313.51 55.01"><defs><style>.cls-1{fill:#8ee0e8;}.cls-2{fill:#ea8d07;}.cls-3{fill:#12497c;}.cls-4{fill:#c12727;}.cls-5{fill:#1e17ad;}.cls-6{fill:#18abc4;}.cls-7{fill:#fff;}</style></defs><title>powLogo</title><rect class="cls-1" width="313.51" height="14.59"/><path class="cls-2" d="M4.71,54.73v-32H18.29a9.1,9.1,0,0,1,4.08.93,10.58,10.58,0,0,1,3.23,2.44,11.51,11.51,0,0,1,2.12,3.43,10.32,10.32,0,0,1,.77,3.86,11.13,11.13,0,0,1-.72,3.95,11,11,0,0,1-2,3.41,10,10,0,0,1-3.16,2.39,9.13,9.13,0,0,1-4.06.9H10.94V54.73Zm6.23-16.2h7.22A3.57,3.57,0,0,0,21,37.13a5.79,5.79,0,0,0,1.15-3.79,6.26,6.26,0,0,0-.36-2.19,5.34,5.34,0,0,0-.95-1.65,3.78,3.78,0,0,0-1.38-1,4,4,0,0,0-1.6-.34H10.94Z"/><path class="cls-2" d="M46.5,55a14.55,14.55,0,0,1-6.39-1.38,15.67,15.67,0,0,1-4.92-3.66,17,17,0,0,1-4.31-11.21,16.1,16.1,0,0,1,1.2-6.14,16.94,16.94,0,0,1,3.29-5.19,15.72,15.72,0,0,1,5-3.59,14.81,14.81,0,0,1,6.27-1.33A14.07,14.07,0,0,1,53,23.89a15.84,15.84,0,0,1,4.9,3.72A17.16,17.16,0,0,1,61,32.85a16.48,16.48,0,0,1,1.13,6A16.21,16.21,0,0,1,61,44.92a16.62,16.62,0,0,1-3.25,5.14,15.62,15.62,0,0,1-5,3.57A14.8,14.8,0,0,1,46.5,55ZM37.2,38.71a12.87,12.87,0,0,0,.63,4,10.71,10.71,0,0,0,1.83,3.43,9.08,9.08,0,0,0,2.93,2.39,9.09,9.09,0,0,0,7.94,0,9.1,9.1,0,0,0,2.93-2.46,11,11,0,0,0,1.8-3.45,12.82,12.82,0,0,0,.61-3.9,12.5,12.5,0,0,0-.65-4,11.09,11.09,0,0,0-1.85-3.43,8.84,8.84,0,0,0-2.93-2.37,9.14,9.14,0,0,0-7.92,0,8.91,8.91,0,0,0-2.93,2.44,10.94,10.94,0,0,0-1.78,3.43A12.82,12.82,0,0,0,37.2,38.71Z"/><path class="cls-2" d="M74.85,22.78H79.8l3.12,10.61L86,22.78h5L86.3,37.36,89.81,47.6l7.83-24.91h5.84l-11.26,32H87.71L82.91,41.29,78.12,54.73H73.61l-11.18-32h5.76L76.06,47.6l3.43-10.24Z"/><path class="cls-3" d="M120.68,22.78h4.95l3.12,10.61,3.12-10.61h5l-4.71,14.58,3.51,10.24,7.83-24.91h5.84l-11.26,32h-4.52l-4.79-13.45L124,54.73h-4.52l-11.18-32H114l7.87,24.91,3.43-10.24Z"/><path class="cls-3" d="M192.16,22.78h4.95l3.12,10.61,3.12-10.61h5l-4.71,14.58,3.51,10.24,7.83-24.91h5.84l-11.26,32H205l-4.79-13.45-4.79,13.45h-4.52l-11.18-32h5.76l7.87,24.91,3.43-10.24Z"/><path class="cls-3" d="M164.75,55a14.55,14.55,0,0,1-6.39-1.38,15.67,15.67,0,0,1-4.92-3.66,17,17,0,0,1-4.31-11.21,16.1,16.1,0,0,1,1.2-6.14,16.94,16.94,0,0,1,3.29-5.19,15.72,15.72,0,0,1,5-3.59,14.81,14.81,0,0,1,6.27-1.33,14.07,14.07,0,0,1,6.34,1.42,15.84,15.84,0,0,1,4.9,3.72,17.16,17.16,0,0,1,3.16,5.23,16.48,16.48,0,0,1,1.13,6,16.21,16.21,0,0,1-1.17,6.11A16.62,16.62,0,0,1,176,50.06a15.62,15.62,0,0,1-5,3.57A14.8,14.8,0,0,1,164.75,55Zm-9.3-16.25a12.87,12.87,0,0,0,.63,4,10.71,10.71,0,0,0,1.83,3.43,9.08,9.08,0,0,0,2.93,2.39,9.09,9.09,0,0,0,7.94,0,9.1,9.1,0,0,0,2.93-2.46,11,11,0,0,0,1.8-3.45,12.82,12.82,0,0,0,.61-3.9,12.5,12.5,0,0,0-.65-4,11.09,11.09,0,0,0-1.85-3.43,8.84,8.84,0,0,0-2.93-2.37,9.14,9.14,0,0,0-7.92,0,8.91,8.91,0,0,0-2.93,2.44,10.94,10.94,0,0,0-1.78,3.43A12.82,12.82,0,0,0,155.45,38.71Z"/><path class="cls-4" d="M221.9,38.49a16.59,16.59,0,0,1,1.06-5.8A15.55,15.55,0,0,1,231,23.91a15.34,15.34,0,0,1,6.68-1.4,14.57,14.57,0,0,1,7.65,1.94,12.4,12.4,0,0,1,4.81,5.05l-4.78,3.29a8.19,8.19,0,0,0-1.53-2.28,7.69,7.69,0,0,0-1.94-1.47,8.73,8.73,0,0,0-2.17-.79,10.29,10.29,0,0,0-2.21-.25,8.4,8.4,0,0,0-4.08.95,9,9,0,0,0-2.89,2.46,10.84,10.84,0,0,0-1.74,3.43,13,13,0,0,0-.59,3.81,12.44,12.44,0,0,0,.68,4.08,10.86,10.86,0,0,0,1.92,3.45,9.58,9.58,0,0,0,3,2.39,8.14,8.14,0,0,0,3.81.9,10,10,0,0,0,2.26-.27,8.58,8.58,0,0,0,2.23-.86,8.46,8.46,0,0,0,2-1.51,7,7,0,0,0,1.44-2.23l5.1,2.93a9.64,9.64,0,0,1-2.19,3.18,14.07,14.07,0,0,1-3.2,2.32,16.36,16.36,0,0,1-3.81,1.44,16.7,16.7,0,0,1-4,.5,13.64,13.64,0,0,1-6.27-1.44,16.32,16.32,0,0,1-4.9-3.77,17.48,17.48,0,0,1-3.2-5.28A16.48,16.48,0,0,1,221.9,38.49Z"/><path class="cls-4" d="M263.46,22.69H269l12.18,32h-6.41l-3-8H260.58l-2.93,8h-6.41Zm7.18,19.68-4.42-12.59-4.6,12.59Z"/><path class="cls-4" d="M284.67,54.73v-32h6.23V49.27h16.34v5.46Z"/><rect class="cls-5" x="2.53" y="3.54" width="8.56" height="8"/><rect class="cls-6" x="11.1" y="3.54" width="8.56" height="8"/><rect class="cls-2" x="19.66" y="3.56" width="8.56" height="8"/><rect class="cls-7" x="28.21" y="3.56" width="8.56" height="8"/><rect class="cls-5" x="36.77" y="3.54" width="8.56" height="8"/><rect class="cls-6" x="45.34" y="3.54" width="8.56" height="8"/><rect class="cls-2" x="53.9" y="3.56" width="8.56" height="8"/><rect class="cls-7" x="62.46" y="3.56" width="8.56" height="8"/><rect class="cls-5" x="71.06" y="3.54" width="8.56" height="8"/><rect class="cls-6" x="79.63" y="3.54" width="8.56" height="8"/><rect class="cls-2" x="88.19" y="3.56" width="8.56" height="8"/><rect class="cls-7" x="96.75" y="3.56" width="8.56" height="8"/><rect class="cls-5" x="105.34" y="3.54" width="8.56" height="8"/><rect class="cls-6" x="113.91" y="3.54" width="8.56" height="8"/><rect class="cls-2" x="122.47" y="3.56" width="8.56" height="8"/><rect class="cls-7" x="131.02" y="3.56" width="8.56" height="8"/><rect class="cls-5" x="139.63" y="3.54" width="8.56" height="8"/><rect class="cls-6" x="148.2" y="3.54" width="8.56" height="8"/><rect class="cls-2" x="156.76" y="3.56" width="8.56" height="8"/><rect class="cls-7" x="165.31" y="3.56" width="8.56" height="8"/><rect class="cls-5" x="173.87" y="3.54" width="8.56" height="8"/><rect class="cls-6" x="182.44" y="3.54" width="8.56" height="8"/><rect class="cls-2" x="191.01" y="3.56" width="8.56" height="8"/><rect class="cls-7" x="199.56" y="3.56" width="8.56" height="8"/><rect class="cls-5" x="208.16" y="3.54" width="8.56" height="8"/><rect class="cls-6" x="216.73" y="3.54" width="8.56" height="8"/><rect class="cls-2" x="225.3" y="3.56" width="8.56" height="8"/><rect class="cls-7" x="233.85" y="3.56" width="8.56" height="8"/><rect class="cls-5" x="242.46" y="3.54" width="8.56" height="8"/><rect class="cls-6" x="251.03" y="3.54" width="8.56" height="8"/><rect class="cls-2" x="259.6" y="3.56" width="8.56" height="8"/><rect class="cls-7" x="268.15" y="3.56" width="8.56" height="8"/><rect class="cls-5" x="276.75" y="3.54" width="8.56" height="8"/><rect class="cls-6" x="285.32" y="3.54" width="8.56" height="8"/><rect class="cls-2" x="293.89" y="3.56" width="8.56" height="8"/><rect class="cls-7" x="302.44" y="3.56" width="8.56" height="8"/></svg>